<?xml version="1.0" encoding="UTF-8"?>
<svg id="Calque_1" xmlns="http://www.w3.org/2000/svg" version="1.1" viewBox="0 0 48 48">
  <!-- Generator: Adobe Illustrator 29.7.0, SVG Export Plug-In . SVG Version: 2.1.1 Build 138)  -->
  <defs>
    <style>
      .st0 {
        stroke: #fff;
        stroke-miterlimit: 10;
      }

      .st0, .st1 {
        fill: #1d1d1b;
      }
    </style>
  </defs>
  <circle class="st1" cx="24" cy="24" r="23"/>
  <g>
    <g>
      <circle class="st0" cx="10.9" cy="31.7" r="3.8"/>
      <circle class="st0" cx="11.7" cy="27.8" r="3.8"/>
      <circle class="st0" cx="12.4" cy="24" r="3.8"/>
      <circle class="st0" cx="13.1" cy="20.2" r="3.8"/>
      <circle class="st0" cx="13.9" cy="16.3" r="3.8"/>
      <circle class="st0" cx="20.7" cy="31.7" r="3.8"/>
      <circle class="st0" cx="20" cy="27.8" r="3.8"/>
      <circle class="st0" cx="16.1" cy="27.8" r="3.8"/>
      <circle class="st0" cx="19.2" cy="24" r="3.8"/>
      <circle class="st0" cx="18.5" cy="20.2" r="3.8"/>
      <circle class="st0" cx="17.7" cy="16.3" r="3.8"/>
    </g>
    <g>
      <circle class="st0" cx="23.8" cy="16.3" r="3.8"/>
      <circle class="st0" cx="27.9" cy="16.3" r="3.8"/>
      <circle class="st0" cx="33.4" cy="16.3" r="3.8"/>
      <circle class="st0" cx="37.9" cy="16.3" r="3.8"/>
      <circle class="st0" cx="30.7" cy="20.2" r="3.8"/>
      <circle class="st0" cx="30.7" cy="24" r="3.8"/>
      <circle class="st0" cx="30.7" cy="27.8" r="3.8"/>
      <circle class="st0" cx="30.7" cy="31.7" r="3.8"/>
    </g>
  </g>
</svg>